<svg id="Layer_1" data-name="Layer 1" xmlns="http://www.w3.org/2000/svg" viewBox="0 0 1020.47 703.1"><defs><style>.cls-1{font-size:118.33px;letter-spacing:0.07em;}.cls-1,.cls-2{fill:#010101;font-family:Athelas-Regular, Athelas;}.cls-2{font-size:236.65px;letter-spacing:0.07em;}.cls-3{fill:none;stroke:#231f20;stroke-miterlimit:10;stroke-width:2px;}</style></defs><text class="cls-1" transform="translate(104.3 688.85)">NEKRETNINE</text><text class="cls-2" transform="translate(313.97 472.42)">IBE</text><line class="cls-3" x1="243.3" y1="543.04" x2="243.3" y2="233.02"/><line class="cls-3" x1="291.8" y1="543.04" x2="291.8" y2="233.02"/><line class="cls-3" x1="194.36" y1="543.04" x2="194.36" y2="233.02"/><line class="cls-3" x1="826.27" y1="543.04" x2="826.27" y2="233.02"/><line class="cls-3" x1="777.33" y1="543.04" x2="777.33" y2="233.02"/><line class="cls-3" x1="728.5" y1="544.63" x2="728.5" y2="234.61"/><line class="cls-3" x1="900.33" y1="571.16" x2="122.12" y2="571.16"/><line class="cls-3" x1="919.65" y1="585.79" x2="95.39" y2="585.79"/><line class="cls-3" x1="900.33" y1="204.5" x2="122.12" y2="204.5"/><line class="cls-3" x1="511.22" y1="38.61" x2="60.18" y2="210.94"/><line class="cls-3" x1="511.22" y1="18.06" x2="51.14" y2="193.85"/><line class="cls-3" x1="511.22" y1="38.61" x2="960.13" y2="210.94"/><line class="cls-3" x1="511.22" y1="18.06" x2="969.34" y2="193.4"/><line class="cls-3" x1="346.67" y1="221.98" x2="139.93" y2="221.98"/><line class="cls-3" x1="346.67" y1="556.54" x2="139.93" y2="556.54"/><line class="cls-3" x1="880.7" y1="221.96" x2="673.96" y2="221.96"/><line class="cls-3" x1="880.7" y1="556.54" x2="673.96" y2="556.54"/></svg>