<svg id="Layer_1" data-name="Layer 1" xmlns="http://www.w3.org/2000/svg" viewBox="0 0 1020.47 1020.47"><defs><style>.cls-1{font-size:118.33px;letter-spacing:0.07em;}.cls-1,.cls-2{fill:#010101;font-family:Athelas-Regular, Athelas;}.cls-2{font-size:236.65px;letter-spacing:0.07em;}.cls-3{fill:none;stroke:#231f20;stroke-miterlimit:10;stroke-width:2px;}</style></defs><text class="cls-1" transform="translate(104.3 821.61)">NEKRETNINE</text><text class="cls-2" transform="translate(313.97 605.18)">IBE</text><line class="cls-3" x1="243.3" y1="675.8" x2="243.3" y2="365.79"/><line class="cls-3" x1="291.8" y1="675.8" x2="291.8" y2="365.79"/><line class="cls-3" x1="194.36" y1="675.8" x2="194.36" y2="365.79"/><line class="cls-3" x1="826.27" y1="675.8" x2="826.27" y2="365.79"/><line class="cls-3" x1="777.33" y1="675.8" x2="777.33" y2="365.79"/><line class="cls-3" x1="728.5" y1="677.39" x2="728.5" y2="367.37"/><line class="cls-3" x1="900.33" y1="703.92" x2="122.12" y2="703.92"/><line class="cls-3" x1="919.65" y1="718.55" x2="95.39" y2="718.55"/><line class="cls-3" x1="900.33" y1="337.26" x2="122.12" y2="337.26"/><line class="cls-3" x1="511.22" y1="171.37" x2="60.18" y2="343.7"/><line class="cls-3" x1="511.22" y1="150.82" x2="51.14" y2="326.61"/><line class="cls-3" x1="511.22" y1="171.37" x2="960.13" y2="343.7"/><line class="cls-3" x1="511.22" y1="150.82" x2="969.34" y2="326.17"/><line class="cls-3" x1="346.67" y1="354.74" x2="139.93" y2="354.74"/><line class="cls-3" x1="346.67" y1="689.3" x2="139.93" y2="689.3"/><line class="cls-3" x1="880.7" y1="354.72" x2="673.96" y2="354.72"/><line class="cls-3" x1="880.7" y1="689.3" x2="673.96" y2="689.3"/></svg>